<?xml version="1.0" encoding="UTF-8" standalone="no"?>
<!-- Created with Inkscape (http://www.inkscape.org/) -->

<svg
   xmlns:dc="http://purl.org/dc/elements/1.1/"
   xmlns:cc="http://creativecommons.org/ns#"
   xmlns:rdf="http://www.w3.org/1999/02/22-rdf-syntax-ns#"
   xmlns:svg="http://www.w3.org/2000/svg"
   xmlns="http://www.w3.org/2000/svg"
   xmlns:sodipodi="http://sodipodi.sourceforge.net/DTD/sodipodi-0.dtd"
   xmlns:inkscape="http://www.inkscape.org/namespaces/inkscape"
   width="175.75769"
   height="44.092892"
   id="svg3010"
   version="1.1"
   inkscape:version="0.48.0 r9654"
   sodipodi:docname="New document 2">
  <defs
     id="defs3012" />
  <sodipodi:namedview
     id="base"
     pagecolor="#ffffff"
     bordercolor="#666666"
     borderopacity="1.0"
     inkscape:pageopacity="0.0"
     inkscape:pageshadow="2"
     inkscape:zoom="0.7"
     inkscape:cx="42.472878"
     inkscape:cy="-40.961748"
     inkscape:document-units="px"
     inkscape:current-layer="layer1"
     showgrid="false"
     showborder="false"
     inkscape:showpageshadow="false"
     fit-margin-top="0"
     fit-margin-left="0"
     fit-margin-right="0"
     fit-margin-bottom="0"
     inkscape:window-width="1257"
     inkscape:window-height="746"
     inkscape:window-x="-8"
     inkscape:window-y="-8"
     inkscape:window-maximized="1" />
  <metadata
     id="metadata3015">
    <rdf:RDF>
      <cc:Work
         rdf:about="">
        <dc:format>image/svg+xml</dc:format>
        <dc:type
           rdf:resource="http://purl.org/dc/dcmitype/StillImage" />
        <dc:title></dc:title>
      </cc:Work>
    </rdf:RDF>
  </metadata>
  <g
     inkscape:label="Layer 1"
     inkscape:groupmode="layer"
     id="layer1"
     transform="translate(-265.00001,-441.12645)">
    <path
       class="fil1"
       d="m 277.8534,461.18385 c 9.2126,-4.5986 11.97637,10.7891 5.88189,14.7687 -5.49213,3.5727 -11.21457,-2.7769 -9.01772,-10.8422 0.69095,-2.5292 1.59448,-3.1483 3.13583,-3.9088 z m 8.58373,-6.1816 c -3.79133,-4.0857 -10.78059,-3.953 -15.40461,-0.4864 -7.93701,5.9782 -8.22048,22.038 0.2126,28.2285 5.86418,4.2979 10.63808,2.2773 15.84673,-0.6234 l 0.045,2.5866 8.62795,-0.088 -0.0708,-32.1019 -8.55709,0.071 c -0.23032,0.4953 -0.12398,2.2818 -0.24801,2.5825 -0.74409,1.5919 0.42529,0.3803 -0.45173,-0.1682 z"
       id="path3013"
       inkscape:connector-curvature="0"
       style="fill:#00448c;fill-opacity:1;fill-rule:evenodd"
       sodipodi:nodetypes="ccccccccccccccc" />
    <path
       style="color:#000000;fill:#00448c;fill-opacity:1;fill-rule:nonzero;stroke:#273386;stroke-width:0.24979156;stroke-linecap:butt;stroke-linejoin:miter;stroke-miterlimit:4;stroke-opacity:1;stroke-dasharray:none;stroke-dashoffset:0;marker:none;visibility:visible;display:inline;overflow:visible;enable-background:accumulate"
       id="path3029"
       d="m 286.5549,455.86375 c 0.0421,-0.019 0.0777,0.038 0.11816,0.031 0.0189,0 0.03,-0.025 0.0482,-0.031 0.0253,-0.01 0.0534,0 0.08,0 0.0707,0.01 0.0839,0.029 0.0354,0.1128 -0.007,0.012 -0.076,0.013 -0.0888,0.014 -0.0567,0 -0.0165,0.01 -0.0586,-0.039 -0.006,-0.01 -0.0192,-0.01 -0.0215,-0.015 -0.005,-0.018 0.0212,-0.046 0.0314,-0.058 0.007,-0.017 0.008,-0.038 0.0216,-0.05 0.0187,-0.016 0.11501,-0.01 0.13905,0 0,0 -0.0133,0.1043 -0.0133,0.1043 l 0,0 c -0.0316,0 -0.0331,-0.01 -0.0665,0 -0.0113,5e-4 -0.0233,0.01 -0.0338,0 -0.016,-0.01 -0.0256,-0.024 -0.0384,-0.035 -0.0166,0 -0.0388,0 -0.0274,0.013 0.004,0 0.009,-0.01 0.0138,0 0.004,5e-4 0.004,0.01 0.007,0.01 0.009,-0.01 0.01,-0.02 0.0188,-0.026 0.005,0 0.0124,10e-4 0.0186,0 0.0624,0 -0.007,10e-4 0.0471,0 0.003,-3e-4 0.009,0 0.009,-5e-4 0.005,0.1259 -0.0343,0.059 0.0186,0.091 0.004,0 -0.008,0 -0.0117,0 -0.0267,0 -0.0547,0.01 -0.08,0 -0.0182,-0.01 -0.0294,-0.028 -0.0482,-0.031 -0.0405,-0.01 -0.076,0.05 -0.11816,0.031 0,0 0,-0.1052 0,-0.1052 z"
       inkscape:connector-curvature="0" />
    <path
       style="color:#000000;fill:#00448c;fill-opacity:1;fill-rule:nonzero;stroke:#273386;stroke-width:0.24979156;stroke-linecap:butt;stroke-linejoin:miter;stroke-miterlimit:4;stroke-opacity:1;stroke-dasharray:none;stroke-dashoffset:0;marker:none;visibility:visible;display:inline;overflow:visible;enable-background:accumulate"
       id="path3031"
       d="m 286.63781,455.65295 c 0.0113,0 0.0217,0.013 0.0339,0.016 0.005,10e-4 0.0799,10e-4 0.0819,10e-4 0.0388,1e-4 0.0778,0 0.11656,0 0.0383,4e-4 0.0584,-0.011 0.0172,0.066 -10e-4,0 -0.0611,0 -0.0824,0 -0.04,0.02 -0.0684,-0.05 -0.10959,-0.046 -0.0106,10e-4 -0.0193,0.01 -0.0294,0.013 -0.0118,0 -0.024,0.01 -0.0361,0.011 -0.049,-0.039 -0.0779,-0.1132 -0.0157,-0.1579 0.0124,-0.01 0.028,-0.012 0.0421,-0.019 0.0131,-1e-4 0.0275,-0.01 0.0394,-5e-4 0.015,0.01 0.0422,0.058 0.0731,0.038 0.0508,-0.033 0.0107,-0.062 0.0768,-0.036 0.0944,0.042 -0.0246,0.1241 -0.0554,0.1011 -0.014,-0.01 -0.0167,-0.032 -0.0309,-0.043 -0.026,-0.019 -0.0676,0.04 -0.0805,0.053 -0.0748,0 -0.14053,-0.058 -0.075,-0.1323 0.008,-0.01 0.0204,-0.013 0.0306,-0.019 0.009,0 0.0654,-0.025 0.0752,-0.02 0.0197,0.01 0.0243,0.047 0.0457,0.045 0.0204,0 0.0153,-0.04 0.0319,-0.052 0.007,0 0.0693,0 0.0781,0 0.089,0 0.17189,0.1061 0.0361,0.1417 -0.0171,0 -0.11756,0.01 -0.12503,-0.01 -0.0529,-0.1009 0.0114,-0.034 -0.008,-0.054 10e-4,-0.017 -0.007,-0.038 0.004,-0.052 0.009,-0.012 0.12351,0.01 0.14019,0.011 0,0 -0.0219,0.1029 -0.0219,0.1029 l 0,0 c -0.0149,0 -0.0939,-0.01 -0.0989,-0.018 -0.009,-0.014 -0.0137,-0.031 -0.0206,-0.047 0.0121,0.016 -0.008,-0.01 0.0219,-0.041 0.006,-0.01 0.0715,0.01 0.0874,0 0.0254,5e-4 -0.0133,0 -0.0128,0.046 1.3e-4,0.013 0.0126,0.022 0.0199,0.032 5e-4,0.001 0.003,2e-4 0.003,-3e-4 -0.01,-0.01 -0.0228,-0.01 -0.0338,-0.011 -0.005,-5e-4 -0.0593,-0.01 -0.0595,-0.01 -0.0167,-0.012 -0.0202,-0.049 -0.0405,-0.046 -0.0201,0 -0.0127,0.04 -0.0262,0.055 -0.01,0.011 -0.0325,-5e-4 -0.0438,0.01 -0.0208,0 0.0192,-0.045 -0.0269,-0.051 -10e-4,-2e-4 0.001,0 0.001,0 0.006,0 0.0115,0 0.0172,0 0.0109,0.01 0.0588,0.073 0.0815,0.049 0.0114,-0.012 0.01,-0.032 0.0184,-0.047 0.0157,-0.025 0.16682,0 0.0229,0.086 0.0129,0 -10e-4,5e-4 -0.007,-0.01 -0.01,-0.015 -0.0111,-0.036 -0.0245,-0.047 -0.0337,-0.029 -0.0505,0.04 -0.0552,0.046 -0.005,0.01 -0.015,0.01 -0.0225,0.012 -0.002,-4e-4 -0.006,10e-4 -0.008,-10e-4 -5e-4,0 -0.009,-0.053 0.002,-0.011 -10e-4,0.039 0.005,0.09 0.0603,0.066 0.0103,0 0.0166,-0.016 0.0273,-0.02 0.01,0 0.0212,0 0.0318,0 0.0213,0 0.0813,0 0.0825,0 0.0412,0.077 0.0211,0.066 -0.0172,0.066 -0.0388,0 -0.0778,-1e-4 -0.11656,0 -0.002,0 -0.0774,10e-5 -0.0819,10e-4 -0.0122,0 -0.0226,0.011 -0.0339,0.016 0,0 0,-0.1002 0,-0.1002 z"
       inkscape:connector-curvature="0" />
    <path
       class="fil1"
       d="m 308.71655,484.63685 c 0.63779,-5.5537 -2.85237,-26.6543 5.63386,-24.3196 6.6437,1.8394 -0.30118,18.5183 5.31496,24.3904 l 9,-0.1769 c -2.99409,-5.8544 -2.24999,-5.1823 -2.26771,-12.6993 0,-4.3863 -0.81497,-11.5849 4.51771,-11.5849 8.48623,0 -0.15944,18.642 6.87403,24.4434 l 9.05315,-0.088 c -5.84646,-6.1905 -0.93897,-16.6965 -3.5256,-25.7346 -0.9744,-3.3959 -3.89764,-6.4204 -8.16732,-6.8449 -5.88189,-0.5836 -7.2815,1.3619 -10.48819,4.015 -2.09056,-1.5918 -3.06497,-3.7673 -7.54726,-4.0327 -4.09251,-0.2476 -6.87952,1.0533 -8.7752,3.2111 l -0.0701,-2.1975 c -0.0354,-0.2299 -0.10306,-0.3216 -0.20936,-0.4808 l -8.30751,0.1217 0.2126,32.0665 8.75198,-0.071 z"
       id="path3009"
       inkscape:connector-curvature="0"
       style="fill:#00448c;fill-opacity:1;fill-rule:evenodd"
       sodipodi:nodetypes="cccccsccccccccccccc" />
    <path
       class="fil1"
       d="m 361.03255,461.27195 c 9.3189,-5.0762 11.78149,11.7442 5.45669,14.9278 -4.69489,2.3524 -7.90158,-1.3796 -8.84055,-4.7578 -0.95669,-3.4136 -0.37205,-8.1183 3.38386,-10.17 z m -3.69222,21.2724 c 4.16015,3.3138 12.16073,3.4363 16.3064,-0.4371 8.66339,-8.136 6.98031,-22.6924 -1.09843,-28.1047 -6.16536,-4.121 -10.54134,-1.4857 -14.89961,1.132 l -0.0708,-14.0081 -9.07088,0.1592 0.23032,43.4393 8.37507,0.046 c 0.23125,-2.243 0.003,0.018 3.5e-4,0.029 z"
       id="path3011"
       inkscape:connector-curvature="0"
       style="fill:#00448c;fill-opacity:1;fill-rule:evenodd"
       sodipodi:nodetypes="cccccccccccccc" />
    <path
       inkscape:connector-curvature="0"
       style="fill:#00448c;fill-opacity:1;fill-rule:evenodd"
       class="fil1"
       d="m 390.79681,465.25225 c 1.39961,-7.7469 9.69095,-7.6054 10.75394,0.018 l -10.75394,-0.018 z m 18.35435,9.1088 c -5.93505,2.1401 -16.03348,6.2789 -18.37207,-2.4054 l 19.82482,-0.3715 c 0.38976,-9.1441 -2.3563,-16.1305 -8.82284,-18.7482 -17.06103,-6.8979 -27.54923,18.0231 -14.89961,28.6176 5.31496,4.4571 15.59056,5.3061 21.15355,0.6013 0.88583,-1.8217 1.063,-5.0054 1.09843,-7.6938 z"
       id="path3015" />
    <path
       inkscape:connector-curvature="0"
       style="fill:#00448c;fill-opacity:1;fill-rule:evenodd"
       class="fil1"
       d="m 440.73999,452.55295 -9.56694,0.1769 -6.14764,20.8176 -5.95276,-21.0122 -9.46064,0.018 c 0.30118,2.7415 9.31892,29.7849 10.66536,32.1373 l 9.9567,0.053 10.52363,-32.1727 z"
       id="path3017" />
  </g>
</svg>
